<?xml version="1.0" encoding="UTF-8"?>
<svg width="600px" height="400px" viewBox="0 0 600 400" version="1.1" xmlns="http://www.w3.org/2000/svg" xmlns:xlink="http://www.w3.org/1999/xlink">
    <title>Develope Website Dashboard</title>
    <g id="Develope-Website-Dashboard" stroke="none" stroke-width="1" fill="none" fill-rule="evenodd">
        <rect fill="none" x="0" y="0" width="600" height="400"></rect>
        <g id="plant_18_" transform="translate(39.000000, 211.713542)" fill-rule="nonzero">
            <path d="M43.6482,88.7832396 C55.7334,94.2759896 96.6564,131.836812 91.0953,142.843937 C88.3485,148.281724 72.6318,134.842687 25.8606,135.264375 C9.4572,135.412146 -4.0851,122.659703 1.7685,102.869224 C7.3539,83.9842917 31.563,83.2904896 43.6482,88.7832396 Z" id="Path" fill="#44D690"></path>
            <path d="M92.3193,143.99637 C92.2446,143.99637 92.1717,143.959427 92.1285,143.890948 C92.0799,143.813458 87.1443,136.067203 75.5595,127.910974 C64.8666,120.382771 46.1601,110.954271 17.7669,108.792672 C17.6427,108.783661 17.55,108.675536 17.5591754,108.551193 C17.5698,108.425948 17.6733,108.321427 17.802,108.343953 C46.3113,110.513661 65.0997,119.989917 75.8412,127.557766 C87.4908,135.765354 92.4615,143.57288 92.511,143.651271 C92.5767,143.756693 92.5452696,143.895453 92.4399,143.96213 C92.4012,143.984656 92.3598,143.99637 92.3193,143.99637 Z" id="Path" fill="#F3F9FF"></path>
            <path d="M26.4708,91.602599 C39.447,107.551938 94.347,149.278276 102.4128,134.70663 C110.4786,120.134984 55.1862,38.4807865 42.2109,22.5314479 C29.2356,6.58210938 12.8268,8.28147396 8.4852,25.4138802 C1.6416,52.419901 13.4946,75.6523594 26.4708,91.602599 Z" id="Path" fill="#8AE6B9"></path>
            <path d="M104.049,136.294266 C104.0022,136.294266 103.9554,136.279849 103.9158,136.250115 C103.3776,135.855458 49.7808,96.1132135 22.086,43.1707083 C22.0284,43.0607812 22.0707,42.924724 22.1805,42.8661562 C22.2903,42.8075885 22.4262,42.8508385 22.4847,42.9607656 C50.1291,95.8095625 103.644,135.491437 104.1813,135.886995 C104.2812,135.959979 104.3028,136.100542 104.2299,136.201458 C104.1867,136.262729 104.1183,136.294266 104.049,136.294266 Z" id="Path" fill="#F3F9FF"></path>
            <path d="M62.7183,70.7092448 C67.7556,88.2435156 94.2192,140.223708 101.7873,132.971224 C109.3554,125.717839 96.201,39.2908229 91.1628,21.7574531 C86.1246,4.22408333 78.0723,-7.36781771 65.61,6.32981771 C54.0819,19.0011667 57.681,53.174974 62.7183,70.7092448 Z" id="Path" fill="#1EAF69"></path>
            <path d="M102.5406,134.926484 C102.4524,134.926484 102.3696,134.874224 102.3336,134.788625 C102.1068,134.248901 79.5573,80.2197396 72.2331,28.7999948 C72.2151,28.6765521 72.3015,28.5630208 72.4239,28.545901 C72.5445,28.524276 72.6606,28.6134792 72.6786,28.7369219 C79.9938,80.099 102.5217,134.075 102.7485,134.614724 C102.7971,134.729156 102.7431,134.860708 102.6288,134.909365 C102.6,134.921078 102.5694,134.926484 102.5406,134.926484 Z" id="Path" fill="#F3F9FF"></path>
        </g>
        <g id="plant_17_" transform="translate(473.700000, 246.854167)" fill-rule="nonzero">
            <path d="M33.4683,43.423901 C30.1806,55.5230885 7.6977,96.4934531 1.1088,90.9259167 C-2.1456,88.1759375 5.8986,72.4410469 5.6457,25.6157135 C5.5575,9.19332812 13.1904,-4.36464583 25.0362,1.49572917 C36.3411,7.08759375 36.756,31.3247135 33.4683,43.423901 Z" id="Path" fill="#1B90FB"></path>
            <path d="M0.5544,92.3756927 C0.4986,92.3756927 0.4428,92.3549688 0.3996,92.3135208 C0.3096,92.2279219 0.306,92.0855573 0.3924,91.9945521 C0.5778,91.7999271 18.9261,71.9337604 21.402,17.5189531 C21.4074,17.3955104 21.5055,17.3054062 21.6369,17.3045052 C21.7611,17.3108125 21.8574,17.4153333 21.8511,17.5405781 C20.5533,46.0639531 14.8842,64.8641875 10.3572,75.6109115 C5.4441,87.2748958 0.765,92.2576562 0.7182,92.3063125 C0.6732,92.3522656 0.6138,92.3756927 0.5544,92.3756927 Z" id="Path" fill="#F3F9FF"></path>
            <path d="M31.7808,26.2266198 C22.2336,39.2178385 -2.7423,94.1813802 5.9796,102.256516 C14.7015,110.331651 63.5778,54.9752552 73.125,41.9849375 C82.6722,28.9937188 81.6543,12.5668281 71.3997,8.22020312 C55.2339,1.36868229 41.328,13.235401 31.7808,26.2266198 Z" id="Path" fill="#49ADEA"></path>
            <path d="M5.1642,104.120771 C5.1336,104.120771 5.103,104.114464 5.0733,104.101849 C4.9599,104.051391 4.9077,103.918937 4.9581,103.805406 C5.0175,103.671151 10.9872,90.1402083 20.7936,73.3619115 C29.8476,57.8721042 44.118,36.3633385 60.6852,21.8682812 C60.7788,21.7871875 60.9201,21.7961979 61.0029,21.8899062 C61.0848,21.9836146 61.0749,22.1259792 60.9813,22.207974 C44.46,36.6624844 30.2211,58.1243958 21.1851,73.5853698 C11.3904,90.3429427 5.4288,103.853161 5.3703,103.987417 C5.3325,104.070313 5.2506,104.120771 5.1642,104.120771 Z" id="Path" fill="#F3F9FF"></path>
            <path d="M44.2872,62.5160729 C33.7923,67.5592031 2.6775,94.0534323 7.0191,101.630292 C11.3607,109.207151 63.0936,96.037526 73.5894,90.9934948 C84.0843,85.9503646 91.0233,77.8878438 82.8243,65.4111198 C75.2382,53.8696771 54.7821,57.4729427 44.2872,62.5160729 Z" id="Path" fill="#1B90FB"></path>
            <path d="M5.9832,102.609724 C5.9121,102.609724 5.8428,102.576385 5.7987,102.514214 C5.7267,102.412396 5.7519,102.271833 5.8536,102.200651 C6.1767,101.972688 38.5371,79.384474 69.3396,72.0454896 C69.4602,72.0139531 69.5826,72.0914427 69.6105,72.2130833 C69.6393,72.3338229 69.5646,72.4554635 69.444,72.4842969 C38.7243,79.8025573 6.435,102.343016 6.1119,102.569177 C6.0732,102.596208 6.0282,102.609724 5.9832,102.609724 Z" id="Path" fill="#F3F9FF"></path>
        </g>
        <g id="cog_7_" transform="translate(237.900000, 27.000000)" fill="#D3D3F0" fill-rule="nonzero">
            <path d="M116.4213,31.248125 C115.4673,28.9432604 113.0211,27.6322448 110.5767,28.1161042 L102.8547,29.6451719 C101.034,30.0064896 99.1503,29.3712552 97.92,27.9800469 C96.6177,26.5068438 95.238,25.1201406 93.7854,23.8253438 C92.4012,22.5918177 91.773,20.7149479 92.133,18.8948438 L93.6585,11.1774219 C94.1418,8.73019271 92.8332,6.28116146 90.531,5.32605729 L79.1298,0.598291667 C76.8276,-0.3568125 74.1717,0.44871875 72.7848,2.52201563 L68.4126,9.05907292 C67.383,10.5989531 65.6091,11.483776 63.7614,11.375651 C61.8201,11.2630208 59.8644,11.266625 57.9033,11.3864635 C56.0484,11.4990938 54.2727,10.6160729 53.2377,9.07078646 L48.8583,2.52291667 C47.4714,0.449619792 44.8164,-0.355010417 42.5133,0.599192708 L31.1121,5.32695833 C28.8099,6.2820625 27.5004,8.73109375 27.9837,11.1783229 L29.5119,18.9092604 C29.8719,20.7320677 29.2383,22.6179479 27.8487,23.8496719 C26.3772,25.1534792 24.9921,26.534776 23.6988,27.9890573 C22.4667,29.3748594 20.592,30.0037865 18.774,29.6433698 L11.0646,28.1161042 C8.6202,27.6322448 6.174,28.9423594 5.22,31.247224 L0.4977,42.6616198 C-0.4563,44.9664844 0.3483,47.6254583 2.4183,49.0139635 L8.9478,53.391224 C10.4859,54.4220156 11.3688,56.1979687 11.2617,58.0478073 C11.1492,59.9913542 11.1528,61.9493177 11.2725,63.9126875 C11.385,65.7697344 10.5039,67.5483906 8.9595,68.5836875 L2.4192,72.9690573 C0.3483,74.3575625 -0.4554,77.0156354 0.4977,79.321401 L5.22,90.7357969 C6.174,93.0406615 8.6202,94.3516771 11.0646,93.8678177 L18.7866,92.337849 C20.6073,91.9774323 22.491,92.6117656 23.7213,94.002974 C25.0236,95.4761771 26.4033,96.8637813 27.8559,98.1576771 C29.2401,99.3912031 29.8683,101.268073 29.5083,103.088177 L27.9828,110.805599 C27.4986,113.253729 28.8081,115.70276 31.1103,116.657865 L42.5115,121.38563 C44.8137,122.340734 47.4696,121.536104 48.8565,119.461906 L53.2287,112.924849 C54.2583,111.384969 56.0322,110.500146 57.8799,110.608271 C59.8212,110.720901 61.7769,110.717297 63.738,110.598359 C65.5929,110.485729 67.3686,111.367849 68.4027,112.914036 L72.783,119.462807 C74.1699,121.536104 76.8249,122.340734 79.128,121.386531 L90.5292,116.658766 C92.8314,115.703661 94.1409,113.25463 93.6576,110.807401 L92.1294,103.076464 C91.7694,101.253656 92.403,99.367776 93.7926,98.1369531 C95.2641,96.8322448 96.6492,95.4509479 97.9425,93.9966667 C99.1746,92.6108646 101.0493,91.9819375 102.8673,92.3423542 L110.5758,93.8687188 C113.0202,94.3534792 115.4673,93.0424635 116.4204,90.737599 L121.1427,79.3232031 C122.0958,77.0183385 121.2921,74.3593646 119.2212,72.9708594 L112.6917,68.593599 C111.1536,67.5619063 110.2707,65.7868542 110.3778,63.9370156 C110.4903,61.9934688 110.4867,60.0355052 110.367,58.0721354 C110.2545,56.2150885 111.1356,54.4364323 112.68,53.4011354 L119.2203,49.0166667 C121.2912,47.6281615 122.0949,44.9700885 121.1409,42.6643229 L116.4213,31.248125 Z M70.8237,85.1700625 C57.4857,90.7015573 42.1938,84.360026 36.6696,71.0065885 C31.1445,57.653151 37.4787,42.3435521 50.8167,36.8129583 C64.1547,31.2823646 79.4466,37.6229948 84.9708,50.9764323 C90.4959,64.3298698 84.1617,79.6394688 70.8237,85.1700625 Z" id="Shape"></path>
        </g>
        <g id="cog_6_" transform="translate(77.700000, 38.713542)" fill-rule="nonzero">
            <path d="M146.781,90.607849 C143.0235,87.993026 140.7834,83.7022656 140.7825,79.1213698 C140.7816,74.540474 143.0199,70.2452083 146.7783,67.6312865 C155.6577,61.4537448 159.7401,54.9112813 156.4668,46.9983333 C153.1935,39.0862865 145.6875,37.3499792 135.0468,39.2664948 C130.5432,40.0774323 125.9289,38.6294583 122.6925,35.3902135 C119.4561,32.1509687 118.0062,27.529526 118.8162,23.0207135 C120.7314,12.3658958 118.998,4.85030729 111.0942,1.57231771 C103.1904,-1.70567188 96.6555,2.38145312 90.4842,11.2720312 C87.8724,15.0347812 83.5848,17.278375 79.0083,17.278375 C74.4309,17.277474 70.146,15.0320781 67.5342,11.2693281 C61.3638,2.38145312 54.8298,-1.70386979 46.9269,1.57321875 C39.024,4.85030729 37.2897,12.3649948 39.204,23.0171094 C40.014,27.5259219 38.5677,32.1455625 35.3331,35.3857083 C32.0976,38.6258542 27.4815,40.0774323 22.9779,39.2664948 C12.3354,37.3490781 4.8285,39.0844844 1.5543,46.9983333 C-1.7199,54.9112813 2.3625,61.4537448 11.2428,67.6312865 C15.0012,70.2461094 17.2422,74.5386719 17.2422,79.1204688 C17.2413,83.7031667 14.9985,87.993026 11.2401,90.607849 C2.3625,96.7853906 -1.719,103.326953 1.5552,111.239 C4.8294,119.151948 12.3363,120.888255 22.9788,118.969938 C27.4833,118.158099 32.0994,119.606073 35.3358,122.84712 C38.5722,126.088167 40.0158,130.709609 39.2049,135.219323 C37.2906,145.872339 39.0249,153.387026 46.9278,156.664115 C54.8316,159.941203 61.3665,155.854078 67.5369,146.964401 C70.1487,143.201651 74.4363,140.958057 79.0128,140.958057 C83.5902,140.958958 87.8751,143.204354 90.4869,146.967104 C96.6573,155.854979 103.1913,159.941203 111.0942,156.664115 C118.9971,153.387026 120.7314,145.872339 118.8171,135.219323 C118.0071,130.71051 119.4534,126.089969 122.6889,122.850724 C125.9244,119.610578 130.5405,118.159 135.0441,118.969938 C145.6866,120.887354 153.1935,119.151948 156.4677,111.239 C159.7392,103.326953 155.6586,96.7844896 146.781,90.607849 Z" id="Path" fill="#d5e3f0"></path>
            <ellipse id="Oval" fill="#DCEEFD" cx="79.0101" cy="79.1177656" rx="41.9193" ry="41.9678177"></ellipse>
            <path d="M120.9285,79.1177656 C120.9285,102.270031 102.1347,121.085583 79.0092,121.085583 C66.573,121.085583 55.3248,115.629776 47.7099,106.956349 C55.0458,113.601531 64.8261,117.588641 75.5163,117.588641 C98.6418,117.588641 117.4356,98.7730885 117.4356,75.6208229 C117.4356,64.919151 113.4531,55.1266302 106.8156,47.7822396 C115.479,55.4059531 120.9285,66.6671719 120.9285,79.1177656 Z" id="Path" fill="#F3F9FF"></path>
            <path d="M110.3094,51.2791823 C102.9735,44.634901 93.1932,40.6477917 82.503,40.6477917 C59.3775,40.6477917 40.5837,59.4633438 40.5837,82.6156094 C40.5837,93.3172813 44.5662,103.109802 51.2037,110.454193 C42.5403,102.830479 37.0908,91.5683594 37.0908,79.1186667 C37.0908,55.966401 55.8846,37.150849 79.0101,37.150849 C91.4463,37.150849 102.6945,42.6057552 110.3094,51.2791823 Z" id="Path" fill="#D0E7FE"></path>
        </g>
        <g id="laptop" transform="translate(93.900000, 99.984375)" fill-rule="nonzero">
            <path d="M398.5578,236.363052 L36.3798,236.363052 L36.3798,9.68529688 C36.3798,4.70884375 40.4091,0.674880208 45.3798,0.674880208 L389.5578,0.674880208 C394.5285,0.674880208 398.5578,4.70884375 398.5578,9.68529688 L398.5578,236.363052 Z" id="Path" fill="#224380"></path>
            <rect id="Rectangle" fill="#F3F9FF" x="52.5195" y="17.8469323" width="325.9602" height="199.428453"></rect>
            <path d="M270.0369,100.905854 L349.2369,100.905854 C351.225,100.905854 352.8369,102.51962 352.8369,104.510021 L352.8369,132.527911 C352.8369,134.518313 351.225,136.132078 349.2369,136.132078 L270.0369,136.132078 C268.0488,136.132078 266.4369,134.518313 266.4369,132.527911 L266.4369,104.510021 C266.4369,102.51962 268.0479,100.905854 270.0369,100.905854 Z" id="Path" fill="#DAE7FF"></path>
            <path d="M112.7331,68.6224323 L112.7295,68.6224323 C110.925,68.6224323 109.4625,70.086625 109.4625,71.8932135 L109.4625,72.1536146 C109.4625,74.0358906 108.0873,75.7172344 106.2162,75.8956406 C104.0688,76.1001771 102.2625,74.4152292 102.2625,72.3085938 L102.2625,72.3076927 C102.2625,70.8948594 101.1186,69.7487344 99.7065,69.7487344 L99.306,69.7487344 C97.8939,69.7487344 96.75,70.8948594 96.75,72.3076927 L96.75,78.4609062 C96.75,80.3431823 95.3748,82.024526 93.5037,82.2029323 C91.3563,82.4074687 89.55,80.7225208 89.55,78.6158854 L89.55,71.5508177 C89.55,70.5551667 88.7445,69.7487344 87.75,69.7487344 C85.9995,69.7487344 84.5802,68.3286927 84.5802,66.5761667 L84.5802,54.3048802 C84.5802,51.2647656 82.1178,48.7995156 79.0812,48.7995156 L79.0731,48.7995156 C76.0365,48.7995156 73.5741,51.2647656 73.5741,54.3048802 L73.5741,58.2928906 L73.5588,64.9786198 C73.5606,65.0299792 73.5741,65.0777344 73.5741,65.1290937 C73.5741,66.4148802 73.0539,67.578125 72.2124,68.420599 C68.499,72.1382969 68.499,78.1671667 72.2124,81.8848646 C73.0539,82.7273385 73.5741,83.8914844 73.5741,85.1763698 C73.5741,87.7470417 71.4924,89.8320521 68.9238,89.8320521 C66.3552,89.8320521 64.2735,87.7479427 64.2735,85.1763698 C64.2735,83.8905833 64.7937,82.7273385 65.6352,81.8848646 C69.3495,78.1671667 69.3495,72.1382969 65.6352,68.420599 C64.7937,67.578125 64.2735,66.4139792 64.2735,65.1290937 C64.2735,65.0777344 64.2735,64.9786198 64.2735,64.9786198 L64.2735,56.9088906 C64.2735,52.4298125 60.6465,48.7995156 56.1735,48.7995156 L52.5186,48.7995156 L52.5186,217.276286 L83.9376,217.276286 L84.5793,217.276286 L115.998302,217.276286 L115.998302,71.8932135 C116.0001,70.086625 114.5367,68.6224323 112.7331,68.6224323 Z" id="Path" fill="#7266D5"></path>
            <path d="M270.0369,46.5775469 L349.2369,46.5775469 C351.225,46.5775469 352.8369,48.1913125 352.8369,50.1817135 L352.8369,78.1996042 C352.8369,80.1900052 351.225,81.8037708 349.2369,81.8037708 L270.0369,81.8037708 C268.0488,81.8037708 266.4369,80.1900052 266.4369,78.1996042 L266.4369,50.1817135 C266.4369,48.1913125 268.0479,46.5775469 270.0369,46.5775469 Z" id="Path" fill="#DAE7FF"></path>
            <polygon id="Rectangle" fill="#FFFFFF" transform="translate(277.236180, 57.389867) rotate(-180.000000) translate(-277.236180, -57.389867) " points="273.63618 55.5877833 280.83618 55.5877833 280.83618 59.19195 273.63618 59.19195"></polygon>
            <polygon id="Rectangle" fill="#AEC1E8" transform="translate(277.236180, 66.400283) rotate(-180.000000) translate(-277.236180, -66.400283) " points="273.63618 59.19195 280.83618 59.19195 280.83618 73.6086167 273.63618 73.6086167"></polygon>
            <polygon id="Rectangle" fill="#FFFFFF" transform="translate(288.036180, 56.673899) rotate(-180.000000) translate(-288.036180, -56.673899) " points="284.43618 55.5876932 291.63618 55.5876932 291.63618 57.7601047 284.43618 57.7601047"></polygon>
            <polygon id="Rectangle" fill="#AEC1E8" transform="translate(288.036180, 65.684316) rotate(-180.000000) translate(-288.036180, -65.684316) " points="284.43618 57.7601047 291.63618 57.7601047 291.63618 73.6085265 284.43618 73.6085265"></polygon>
            <polygon id="Rectangle" fill="#FFFFFF" transform="translate(298.836180, 59.889266) rotate(-180.000000) translate(-298.836180, -59.889266) " points="295.23618 55.5881437 302.43618 55.5881437 302.43618 64.1903885 295.23618 64.1903885"></polygon>
            <polygon id="Rectangle" fill="#AEC1E8" transform="translate(298.836180, 68.350678) rotate(-180.000000) translate(-298.836180, -68.350678) " points="295.23618 63.0921989 302.43618 63.0921989 302.43618 73.6091572 295.23618 73.6091572"></polygon>
            <path d="M324.4869,70.0046302 L345.1869,70.0046302 C345.4344,70.0046302 345.6369,69.8018958 345.6369,69.5541094 L345.6369,66.8509844 C345.6369,66.6031979 345.4344,66.4004635 345.1869,66.4004635 L324.4869,66.4004635 C324.2394,66.4004635 324.0369,66.6031979 324.0369,66.8509844 L324.0369,69.5541094 C324.0369,69.8018958 324.2394,70.0046302 324.4869,70.0046302 Z" id="Path" fill="#FFFFFF"></path>
            <path d="M335.2869,62.7962969 L345.1869,62.7962969 C345.4344,62.7962969 345.6369,62.5935625 345.6369,62.345776 L345.6369,59.642651 C345.6369,59.3948646 345.4344,59.1921302 345.1869,59.1921302 L335.2869,59.1921302 C335.0394,59.1921302 334.8369,59.3948646 334.8369,59.642651 L334.8369,62.345776 C334.8369,62.5935625 335.0394,62.7962969 335.2869,62.7962969 Z" id="Path" fill="#FFFFFF"></path>
            <polygon id="Rectangle" fill="#FFFFFF" transform="translate(277.236180, 118.926417) rotate(-180.000000) translate(-277.236180, -118.926417) " points="273.63618 109.916001 280.83618 109.916001 280.83618 127.936834 273.63618 127.936834"></polygon>
            <polygon id="Rectangle" fill="#AEC1E8" transform="translate(277.236180, 123.227990) rotate(-180.000000) translate(-277.236180, -123.227990) " points="273.63618 118.518696 280.83618 118.518696 280.83618 127.937284 273.63618 127.937284"></polygon>
            <polygon id="Rectangle" fill="#FFFFFF" transform="translate(288.036180, 118.926417) rotate(-180.000000) translate(-288.036180, -118.926417) " points="284.43618 109.916001 291.63618 109.916001 291.63618 127.936834 284.43618 127.936834"></polygon>
            <polygon id="Rectangle" fill="#AEC1E8" transform="translate(288.036180, 118.926417) rotate(-180.000000) translate(-288.036180, -118.926417) " points="284.43618 109.916 291.63618 109.916 291.63618 127.936834 284.43618 127.936834"></polygon>
            <polygon id="Rectangle" fill="#FFFFFF" transform="translate(298.836180, 118.926417) rotate(-180.000000) translate(-298.836180, -118.926417) " points="295.23618 109.916001 302.43618 109.916001 302.43618 127.936834 295.23618 127.936834"></polygon>
            <polygon id="Rectangle" fill="#AEC1E8" transform="translate(298.836180, 126.596174) rotate(-180.000000) translate(-298.836180, -126.596174) " points="295.23618 125.254973 302.43618 125.254973 302.43618 127.937374 295.23618 127.937374"></polygon>
            <path d="M324.4869,124.332938 L345.1869,124.332938 C345.4344,124.332938 345.6369,124.130203 345.6369,123.882417 L345.6369,121.179292 C345.6369,120.931505 345.4344,120.728771 345.1869,120.728771 L324.4869,120.728771 C324.2394,120.728771 324.0369,120.931505 324.0369,121.179292 L324.0369,123.882417 C324.0369,124.130203 324.2394,124.332938 324.4869,124.332938 Z" id="Path" fill="#FFFFFF"></path>
            <path d="M335.2869,117.124604 L345.1869,117.124604 C345.4344,117.124604 345.6369,116.92187 345.6369,116.674083 L345.6369,113.970958 C345.6369,113.723172 345.4344,113.520437 345.1869,113.520437 L335.2869,113.520437 C335.0394,113.520437 334.8369,113.723172 334.8369,113.970958 L334.8369,116.674083 C334.8369,116.92187 335.0394,117.124604 335.2869,117.124604 Z" id="Path" fill="#FFFFFF"></path>
            <g id="Group" transform="translate(145.800000, 62.171875)">
                <path d="M83.2869,90.4195313 L80.2872,90.4195313 L80.2872,89.5184896 L83.2869,89.5184896 C83.7306,89.5184896 84.159,89.4274844 84.5622,89.2499792 L84.9258,90.0735313 C84.4074,90.3032969 83.8557,90.4195313 83.2869,90.4195313 Z M75.7863,90.4195313 L71.2863,90.4195313 L71.2863,89.5184896 L75.7863,89.5184896 L75.7863,90.4195313 Z M66.7863,90.4195313 L62.2863,90.4195313 L62.2863,89.5184896 L66.7863,89.5184896 L66.7863,90.4195313 Z M57.7863,90.4195313 L53.2863,90.4195313 L53.2863,89.5184896 L57.7863,89.5184896 L57.7863,90.4195313 Z M48.7863,90.4195313 L44.2863,90.4195313 L44.2863,89.5184896 L48.7863,89.5184896 L48.7863,90.4195313 Z M39.7863,90.4195313 L35.2863,90.4195313 L35.2863,89.5184896 L39.7863,89.5184896 L39.7863,90.4195313 Z M30.7863,90.4195313 L26.2863,90.4195313 L26.2863,89.5184896 L30.7863,89.5184896 L30.7863,90.4195313 Z M21.7863,90.4195313 L17.2863,90.4195313 L17.2863,89.5184896 L21.7863,89.5184896 L21.7863,90.4195313 Z M12.7863,90.4195313 L8.2863,90.4195313 L8.2863,89.5184896 L12.7863,89.5184896 L12.7863,90.4195313 Z M3.7503,90.4051146 C2.007,90.261849 0.5607,89.0220156 0.1503,87.3199479 L1.0251,87.1091042 C1.3446,88.4327344 2.4696,89.3959479 3.8241,89.5076771 L3.7503,90.4051146 Z M87.3369,86.0215469 L86.4369,86.0215469 L86.4369,81.5163385 L87.3369,81.5163385 L87.3369,86.0215469 Z M0.9369,82.7174271 L0.0369,82.7174271 L0.0369,78.2122188 L0.9369,78.2122188 L0.9369,82.7174271 Z M87.3369,77.0111302 L86.4369,77.0111302 L86.4369,72.5059219 L87.3369,72.5059219 L87.3369,77.0111302 Z M0.9369,73.7070104 L0.0369,73.7070104 L0.0369,69.2018021 L0.9369,69.2018021 L0.9369,73.7070104 Z M87.3369,68.0007135 L86.4369,68.0007135 L86.4369,63.4955052 L87.3369,63.4955052 L87.3369,68.0007135 Z M0.9369,64.6965938 L0.0369,64.6965938 L0.0369,60.1913854 L0.9369,60.1913854 L0.9369,64.6965938 Z M87.3369,58.9902969 L86.4369,58.9902969 L86.4369,58.3469531 C86.4369,57.1936198 85.8087,56.1321927 84.7971,55.5780521 L85.2282,54.7878385 C86.5296,55.4996615 87.3369,56.8638385 87.3369,58.3469531 L87.3369,58.9902969 Z M1.7559,56.225901 L1.0908,55.618599 C1.8567,54.776125 2.9484,54.2922656 4.0869,54.2913646 L8.5869,54.2913646 L8.5869,55.1924063 L4.0869,55.1924063 C3.2013,55.1942083 2.3517,55.5708438 1.7559,56.225901 Z M80.5869,55.1933073 L76.0869,55.1933073 L76.0869,54.2922656 L80.5869,54.2922656 L80.5869,55.1933073 Z M71.5869,55.1933073 L67.0869,55.1933073 L67.0869,54.2922656 L71.5869,54.2922656 L71.5869,55.1933073 Z M62.5869,55.1933073 L58.0869,55.1933073 L58.0869,54.2922656 L62.5869,54.2922656 L62.5869,55.1933073 Z M53.5869,55.1933073 L49.0869,55.1933073 L49.0869,54.2922656 L53.5869,54.2922656 L53.5869,55.1933073 Z M44.5869,55.1933073 L40.0869,55.1933073 L40.0869,54.2922656 L44.5869,54.2922656 L44.5869,55.1933073 Z M35.5869,55.1933073 L31.0869,55.1933073 L31.0869,54.2922656 L35.5869,54.2922656 L35.5869,55.1933073 Z M26.5869,55.1933073 L22.0869,55.1933073 L22.0869,54.2922656 L26.5869,54.2922656 L26.5869,55.1933073 Z M17.5869,55.1933073 L13.0869,55.1933073 L13.0869,54.2922656 L17.5869,54.2922656 L17.5869,55.1933073 Z" id="Shape" fill="#C3D3F3"></path>
                <path d="M4.0869,0.413578125 L83.2869,0.413578125 C85.275,0.413578125 86.8869,2.02734375 86.8869,4.01774479 L86.8869,32.0356354 C86.8869,34.0260365 85.275,35.6398021 83.2869,35.6398021 L4.0869,35.6398021 C2.0988,35.6398021 0.4869,34.0260365 0.4869,32.0356354 L0.4869,4.01774479 C0.4869,2.02734375 2.0979,0.413578125 4.0869,0.413578125 Z" id="Path" fill="#DAE7FF"></path>
                <polygon id="Rectangle" fill="#FFFFFF" transform="translate(11.286270, 17.120512) rotate(-180.000000) translate(-11.286270, -17.120512) " points="7.68627001 9.42471562 14.88627 9.42471562 14.88627 24.8163094 7.68627001 24.8163094"></polygon>
                <polygon id="Rectangle" fill="#C3D3F3" transform="translate(11.286270, 26.130929) rotate(-180.000000) translate(-11.286270, -26.130929) " points="7.68627 24.8163094 14.88627 24.8163094 14.88627 27.445549 7.68627 27.445549"></polygon>
                <polygon id="Rectangle" fill="#FFFFFF" transform="translate(22.086180, 15.805803) rotate(-180.000000) translate(-22.086180, -15.805803) " points="18.48618 9.42462551 25.68618 9.42462551 25.68618 22.1869797 18.48618 22.1869797"></polygon>
                <polygon id="Rectangle" fill="#C3D3F3" transform="translate(22.086180, 24.816219) rotate(-180.000000) translate(-22.086180, -24.816219) " points="18.48618 22.1869797 25.68618 22.1869797 25.68618 27.4454588 18.48618 27.4454588"></polygon>
                <polygon id="Rectangle" fill="#FFFFFF" transform="translate(32.886180, 13.726289) rotate(-180.000000) translate(-32.886180, -13.726289) " points="29.28618 9.42516614 36.48618 9.42516614 36.48618 18.0274109 29.28618 18.0274109"></polygon>
                <polygon id="Rectangle" fill="#C3D3F3" transform="translate(32.886180, 22.186799) rotate(-180.000000) translate(-32.886180, -22.186799) " points="29.28618 16.9283203 36.48618 16.9283203 36.48618 27.4452786 29.28618 27.4452786"></polygon>
                <path d="M58.5369,23.8406615 L79.2369,23.8406615 C79.4844,23.8406615 79.6869,23.6379271 79.6869,23.3901406 L79.6869,20.6870156 C79.6869,20.4392292 79.4844,20.2364948 79.2369,20.2364948 L58.5369,20.2364948 C58.2894,20.2364948 58.0869,20.4392292 58.0869,20.6870156 L58.0869,23.3901406 C58.0869,23.6379271 58.2894,23.8406615 58.5369,23.8406615 Z" id="Path" fill="#FFFFFF"></path>
                <path d="M69.3369,16.6323281 L79.2369,16.6323281 C79.4844,16.6323281 79.6869,16.4295938 79.6869,16.1818073 L79.6869,13.4786823 C79.6869,13.2308958 79.4844,13.0281615 79.2369,13.0281615 L69.3369,13.0281615 C69.0894,13.0281615 68.8869,13.2308958 68.8869,13.4786823 L68.8869,16.1818073 C68.8869,16.4295938 69.0894,16.6323281 69.3369,16.6323281 Z" id="Path" fill="#FFFFFF"></path>
            </g>
            <path d="M416.7756,272.622771 L18.162,272.622771 C8.2206,272.622771 0.162,264.554844 0.162,254.601938 L0.162,236.363052 L434.7756,236.363052 L434.7756,254.601938 C434.7756,264.553943 426.717,272.622771 416.7756,272.622771 Z" id="Path" fill="#DAE7FF"></path>
            <path d="M163.1421,236.363052 C163.1421,246.375427 171.2493,254.492911 181.251,254.492911 L253.6866,254.492911 C263.6883,254.492911 271.7955,246.375427 271.7955,236.363052 L163.1421,236.363052 Z" id="Path" fill="#AEC1E8"></path>
        </g>
        <g id="bulb_2_" transform="translate(460.200000, 53.130208)" fill-rule="nonzero">
            <path d="M52.4961,26.2140052 C52.4961,10.099776 37.899,-2.60130729 21.2202,0.642442708 C10.9764,2.63464583 2.7621,10.9539635 0.8577,21.2258385 C-0.4608,28.3431667 1.1142,35.0595313 4.6026,40.4153229 C9.2268,47.5137292 11.5587,55.8600781 11.5587,64.334375 L11.5587,65.3354323 L41.3307,65.3354323 L41.3307,65.4219323 C41.3307,56.6773229 43.344,47.8741458 48.1734,40.5874219 C50.9049,36.4678594 52.4961,31.528349 52.4961,26.2140052 Z" id="Path" fill="#FFCB01"></path>
            <path d="M21.2211,0.641541667 C21.0195,0.680286458 20.8332,0.759578125 20.6343,0.803729167 C32.4351,3.28970313 41.3325,13.6597917 41.3325,26.2131042 C41.3325,31.528349 39.7404,36.4669583 37.0107,40.5856198 C32.1975,47.8480156 30.186,56.6169531 30.1725,65.3336302 L41.3316,65.3336302 L41.3316,65.4201302 C41.3316,56.6755208 43.3458,47.8723438 48.1743,40.5856198 C50.904,36.4660573 52.4961,31.5274479 52.4961,26.2131042 C52.4961,10.098875 37.899,-2.60130729 21.2211,0.641541667 Z" id="Path" fill="#F0B701"></path>
            <polygon id="Path" fill="#0B224E" points="33.8886 89.3274687 19.0026 89.3274687 15.2811 81.8758542 37.6101 81.8758542"></polygon>
            <path d="M37.8531,82.1011146 L15.0381,82.1011146 C11.0619,82.1011146 7.8381,78.8735833 7.8381,74.8927812 L7.8381,63.4720781 L45.0531,63.4720781 L45.0531,74.8927812 C45.0531,78.8735833 41.8302,82.1011146 37.8531,82.1011146 Z" id="Path" fill="#102B5E"></path>
            <polygon id="Path" fill="#03193F" points="37.611 81.8776562 17.604 86.5360417 15.282 81.8776562"></polygon>
        </g>
        <g id="woman_9_" transform="translate(101.100000, 179.276042)" fill-rule="nonzero">
            <path d="M90.2124,31.376974 L89.8479,29.3937813 C89.7228,28.7152969 89.8695,28.0287031 90.261,27.4610469 C90.6516,26.8933906 91.2402,26.51225 91.917,26.3879063 L103.3578,24.2821719 C104.2677,24.1145781 104.8725,23.2378646 104.7051,22.3260104 L103.842,17.624375 C103.761,17.1828646 103.5126,16.7990208 103.1436,16.5449271 C102.7746,16.2890313 102.3273,16.1908177 101.8881,16.2755156 L97.6104,17.063026 L97.4475,16.176401 L101.7252,15.3888906 C102.4038,15.26725 103.0878,15.4105156 103.6548,15.8033698 C104.2218,16.1953229 104.6025,16.7837031 104.7267,17.4612865 L105.5898,22.1638229 C105.8463,23.5640417 104.9175,24.912 103.5198,25.1696979 L92.079,27.2754323 C91.638,27.355625 91.2555,27.6034115 91.0008,27.9728385 C90.7461,28.3422656 90.6507,28.7891823 90.7317,29.2306927 L91.0962,31.2138854 L90.2124,31.376974 Z" id="Path" fill="#DAE7FF"></path>
            <path d="M98.9424,20.802349 L79.182,24.4389531 C77.9841,24.6597083 76.8348,23.8658906 76.6152,22.6675052 L75.834,18.4145885 C75.6135,17.2153021 76.4064,16.0646719 77.6034,15.8448177 L97.3638,12.2082135 C98.5617,11.9874583 99.711,12.781276 99.9306,13.9796615 L100.7118,18.2325781 C100.9323,19.4309635 100.1403,20.5815938 98.9424,20.802349 Z" id="Path" fill="#F3F9FF"></path>
            <path d="M89.7291,40.1044635 L88.1028,31.247224 C87.8823,30.0479375 88.6752,28.8973073 89.8722,28.6774531 L90.4554,28.5702292 C91.6533,28.349474 92.8026,29.1432917 93.0222,30.3416771 L94.6485,39.1989167 C94.869,40.3982031 94.0761,41.5488333 92.8791,41.7686875 L92.2959,41.8759115 C91.0989,42.0966667 89.9496,41.30375 89.7291,40.1044635 Z" id="Path" fill="#224380"></path>
            <polygon id="Path" fill="#F1B282" points="30.9105 144.405443 31.7673 148.65926 26.2026 149.444068 24.5178 145.430828"></polygon>
            <path d="M31.8888,148.150172 C31.8888,148.150172 26.6103,149.533271 24.8769,149.701766 C23.1435,149.87026 20.2041,153.591563 18.4266,154.157417 C16.2702,154.84401 16.524,157.327281 18.1575,157.76699 C20.4642,158.387807 33.8787,158.169755 33.9129,153.619495 C33.9489,148.799823 31.8888,148.150172 31.8888,148.150172 Z" id="Path" fill="#03193F"></path>
            <polygon id="Path" fill="#F1B282" points="40.1679 143.009729 37.8117 146.702198 42.9345 149.36838 46.008 146.188604"></polygon>
            <path d="M16.6131,106.295885 C14.886,108.408828 19.5453,145.719161 22.356,147.538365 C25.1667,149.357568 32.2533,145.442542 32.2533,145.442542 C32.2533,145.442542 36.774,110.944359 34.6968,106.295885 C32.6205,101.647411 18.3402,104.182943 16.6131,106.295885 Z" id="Path" fill="#0B224E"></path>
            <path d="M76.4883,108.37549 C74.4111,96.7538542 49.8258,87.2118229 42.9345,86.8441979 C36.0423,86.477474 11.2554,94.7652552 9.5418,96.3555938 C7.8282,97.9459323 7.083,110.087469 22.2345,109.720745 C37.3869,109.354021 44.4735,107.151875 44.4735,107.151875 C44.4735,107.151875 53.4825,110.807401 59.0895,113.122177 C53.8164,118.983453 39.2418,135.889698 39.3417,143.60712 C39.8304,145.809266 45.5733,148.133052 47.1618,147.399604 C48.7503,146.666156 78.5655,119.997125 76.4883,108.37549 Z" id="Path" fill="#102B5E"></path>
            <path d="M37.7532,31.1210781 C37.7532,31.1210781 35.4312,39.6845781 33.9651,41.6416406 C32.499,43.5987031 43.9848,46.5351979 45.207,45.3115833 C46.4292,44.0879687 46.6731,35.7695521 46.6731,35.7695521 C46.6731,35.7695521 52.7832,37.2292396 54.3717,35.918224 C55.9602,34.6072083 56.4489,32.222151 56.5713,31.4878021 C56.6937,30.7534531 58.8933,29.9587344 58.8933,28.8576615 C58.8933,27.7565885 57.7935,20.1608073 55.6551,18.3983698 C54.4662,17.4189375 40.6863,13.1380885 39.3426,20.9672396 C37.9989,28.7963906 37.7532,31.1210781 37.7532,31.1210781 Z" id="Path" fill="#F1B282"></path>
            <path d="M39.0969,33.323224 C42.885,33.323224 49.1166,32.222151 49.1166,28.4296667 C49.1166,24.6371823 44.2287,19.1318177 49.1166,19.743625 C54.0045,20.3554323 57.7908,20.3608385 57.7926,15.2176927 C57.7953,8.12198958 39.204,0.37303125 32.499,16.5521354 C27.855,27.7574896 34.2387,33.323224 39.0969,33.323224 Z" id="Path" fill="#0B224E"></path>
            <path d="M80.3097,43.4743594 C80.3097,43.4743594 85.149,38.7132552 85.716,38.0275625 C88.2765,34.9315833 90.4707,29.863224 93.6765,31.4400469 C94.914,32.04825 96.9498,34.2558021 97.0515,36.7336667 C97.0947,37.801401 96.7482,40.0828385 93.564,40.5847188 C90.8991,41.0046042 83.7594,48.3994531 83.7594,48.3994531 L80.3097,43.4743594 Z" id="Path" fill="#F1B282"></path>
            <path d="M7.6905,98.221651 C8.946,103.493646 23.5782,97.2431198 29.4435,96.3862292 C35.3088,95.5302396 47.4057,95.8969635 46.917,89.9023333 C46.4283,83.9077031 45.2394,64.9533906 55.4598,65.415625 C60.1029,65.414724 60.9624,68.616125 65.0016,68.616125 C72.7002,68.616125 88.0956,49.8636458 87.2361,44.3591823 C86.625,40.4441563 82.0881,39.8143281 79.416,42.2795781 C78.3324,43.2797344 62.2404,51.359375 61.8498,53.565125 L65.4786,53.997625 C63.8415,50.062776 52.5996,38.5222344 37.5894,38.5222344 C19.791,38.5222344 0.2394,56.0159583 0.2394,68.1268594 C0.2394,83.7446146 16.6131,72.4086094 16.6131,72.4086094 L10.737,71.1849948 C10.737,71.1858958 5.2443,87.9461719 7.6905,98.221651 Z" id="Path" fill="#FFCB01"></path>
            <path d="M34.3926,8.85633854 C34.3926,8.85633854 34.6248,0.170296875 22.2345,0.170296875 C-2.9376,0.170296875 7.083,23.658651 6.7158,35.8920938 C6.3486,48.1255365 0.4842,47.2695469 0.2394,51.5512969 C-0.0054,55.8330469 24.0669,52.4072865 25.7778,35.7704531 C27.4887,19.1336198 28.71,11.4693594 32.2542,12.8939063 C35.7984,14.3184531 34.3926,8.85633854 34.3926,8.85633854 Z" id="Path" fill="#0B224E"></path>
            <path d="M37.6983,6.67401563 C40.1229,7.82915104 34.5141,17.928026 31.1139,16.6098021 C27.7146,15.289776 34.5366,5.16747396 37.6983,6.67401563 Z" id="Path" fill="#FFCB01"></path>
            <rect id="Rectangle" fill="#86A0D1" x="25.7418" y="111.739979" width="5.1417" height="45.4665625"></rect>
            <path d="M9.3852,75.9866458 C9.3852,75.9866458 13.5585,60.1760677 19.6074,56.139401 C19.6074,56.139401 12.0924,75.9866458 7.1784,94.9193333 C7.1784,94.9184323 6.8607,83.5914375 9.3852,75.9866458 Z" id="Path" fill="#F0B701"></path>
            <path d="M46.0458,112.766266 L11.3697,112.766266 C10.7217,112.766266 10.1952,112.240057 10.1952,111.590406 L10.1952,107.518599 C10.1952,106.869849 10.7208,106.34274 11.3697,106.34274 L46.0458,106.34274 C46.6938,106.34274 47.2203,106.868948 47.2203,107.518599 L47.2203,111.590406 C47.2194,112.240057 46.6938,112.766266 46.0458,112.766266 Z" id="Path" fill="#AEC1E8"></path>
            <path d="M58.8924,113.342031 L62.3745,114.492661 C62.3745,114.492661 53.838,122.708359 48.5451,125.84849 C48.5451,125.84849 56.3238,114.419677 58.8924,113.342031 Z" id="Path" fill="#0B224E"></path>
            <path d="M37.7937,145.693031 C37.7937,145.693031 43.5312,149.300802 45.5427,150.177516 C47.5542,151.053328 49.4352,156.255943 51.3234,157.579573 C53.6139,159.185229 52.2036,161.770318 50.0409,161.592813 C46.989,161.342323 30.9411,155.738745 32.9247,150.801036 C35.0253,145.572292 37.7937,145.693031 37.7937,145.693031 Z" id="Path" fill="#03193F"></path>
        </g>
        <g id="man_4_" transform="translate(392.700000, 140.531250)" fill-rule="nonzero">
            <path d="M32.9607,66.8158437 C32.9607,66.8158437 33.3315,76.7155885 33.0975,82.7949167 C32.8248,89.8852135 30.168,92.0242865 30.2391,99.6326823 C30.2391,99.6326823 56.8575,103.496349 67.221,100.795927 C68.6322,100.428302 69.0606,80.1620729 69.0606,80.1620729 L68.3154,66.8158437 L75.1851,66.8158437 L76.1454,66.8158437 C76.5252,66.8158437 76.8888,66.6608646 77.1525,66.3869479 C77.4162,66.1130313 77.5575,65.7427031 77.5431,65.3624635 C77.4243,62.2484635 76.8186,54.6391667 73.7802,47.5713958 C68.9085,36.2353906 59.4243,34.4675469 51.1308,34.2458906 C24.5358,33.5367708 22.266,66.8149427 22.266,66.8149427 L32.9607,66.8149427 L32.9607,66.8158437 Z" id="Path" fill="#2CCD7F"></path>
            <path d="M34.2072,73.2970365 C34.2072,73.2970365 34.3899,58.366776 35.3763,56.1889583 L38.3616,77.9851563 L34.2072,73.2970365 Z" id="Path" fill="#1EAF69"></path>
            <path d="M65.6316,66.8158438 C65.6316,66.8158438 64.2087,61.3906719 63.9756,59.5669635 C63.9756,59.5669635 61.9947,65.7922604 61.9947,72.3248125 C61.9947,78.8573646 66.7494,76.5407865 66.7494,76.5407865 L65.6316,66.8158438 Z" id="Path" fill="#1EAF69"></path>
            <path d="M38.3616,67.1816667 C38.3616,67.1816667 28.3788,96.7971042 21.3723,93.3659375 C16.6851,91.0700833 23.1975,66.8149427 23.1975,66.8149427 L38.3616,67.1816667 Z" id="Path" fill="#F1B282"></path>
            <polygon id="Path" fill="#F1B282" points="73.9638 170.160818 78.3468 179.338828 70.5474 183.087161 64.9116 174.472302"></polygon>
            <polygon id="Path" fill="#F1B282" points="19.7505 178.162068 19.4994 185.907422 28.7586 187.666255 29.6424 178.162068"></polygon>
            <path d="M54.0999,115.38199 L35.9748,145.810167 L30.9807,177.689922 C30.8376,178.606281 30.0483,179.281161 29.1222,179.281161 L17.7498,179.281161 C17.1891,179.281161 16.6563,179.036979 16.2909,178.611687 C15.9255,178.186396 15.7626,177.623245 15.8454,177.068203 C17.0406,168.999375 21.1671,141.155385 22.563,132.008911 C24.2019,121.266693 24.9966,112.443693 32.4009,98.5135885 L53.4384,101.459995 L54.0999,115.38199 Z" id="Path" fill="#0B224E"></path>
            <path d="M40.4838,98.9623073 C40.4838,98.9623073 43.2612,126.862161 45.2727,136.933104 C47.0736,145.948927 61.1676,170.1455 64.3545,176.057234 C64.6857,176.671745 65.4183,176.948365 66.0717,176.705083 L76.5594,172.789156 C77.3892,172.479198 77.814,171.557432 77.5098,170.723969 L66.474,141.632937 C66.474,141.632937 65.4939,120.509818 66.1149,112.688776 C66.7854,104.240609 60.858,96.835849 60.858,96.835849 L40.4838,98.9623073 Z" id="Path" fill="#102B5E"></path>
            <path d="M4.752,107.484359 L81.7578,107.484359 C84.2427,107.484359 86.2578,105.466927 86.2578,102.979151 L86.2578,71.3210521 C86.2578,68.833276 84.2427,66.8158438 81.7578,66.8158438 L4.752,66.8158438 C2.2671,66.8158438 0.252,68.833276 0.252,71.3210521 L0.252,102.979151 C0.252,105.466927 2.2671,107.484359 4.752,107.484359 Z" id="Path" fill="#1B90FB"></path>
            <path d="M35.3601,65.3345313 C35.3601,65.3345313 35.6634,68.3404063 33.6465,69.1369271 C32.3577,69.6460156 25.4502,69.4576979 21.8736,68.5152083 C18.297,67.5727188 21.3516,59.0686875 27.6858,59.5903906 C34.02,60.1120938 35.3601,62.648526 35.3601,65.3345313 Z" id="Path" fill="#F1B282"></path>
            <path d="M29.2554,182.735755 C31.6494,182.735755 32.013,189.436802 32.0193251,190.713578 C32.0292,192.90401 29.1087,193.37075 27.7641,193.499599 C26.4195,193.628448 21.3714,193.334708 18.6075,194.66825 C15.8436,196.001792 5.3442,194.081672 5.2785,190.818099 C5.2128,187.554526 10.7253,188.342938 13.7061,186.709349 C16.2729,185.303724 17.5311,180.955297 19.3401,180.955297 C21.0924,180.955297 23.2839,185.435276 25.5258,185.435276 C27.7677,185.435276 28.1547,182.735755 29.2554,182.735755 Z" id="Path" fill="#0B224E"></path>
            <path d="M76.2156,174.769646 C78.3441,173.672177 81.7317,179.462271 82.3212,180.59488 C83.3319,182.537526 80.9496,184.290953 79.8129,185.021698 C78.6762,185.752443 74.0547,187.805917 72.207,190.258552 C70.3593,192.711187 60.1479,195.817078 58.5963,192.946359 C57.0447,190.07474 62.3061,188.249229 64.2096,185.430771 C65.8485,183.004266 64.9782,178.561229 66.5865,177.732271 C68.1444,176.929443 72.1413,179.907385 74.1348,178.879297 C76.1283,177.851208 75.2364,175.274229 76.2156,174.769646 Z" id="Path" fill="#0B224E"></path>
            <g id="Group" transform="translate(36.000000, 8.109375)">
                <path d="M3.1212,3.20590625 C1.6596,6.06310937 2.7513,7.49756771 2.4561,8.68063542 C2.1609,9.86460417 0.756,12.3064271 0.8298,13.4156094 C0.9036,14.5247917 2.6037,14.5680417 3.1581,15.9898854 C3.7125,17.4117292 3.0087,19.355276 4.4694,20.7879323 C5.9301,22.2205885 10.7757,21.5547187 10.6803,23.0342292 C10.5849,24.5137396 8.2206,30.1371406 8.2206,30.1371406 C8.2206,30.1371406 8.3916,33.9575573 15.2163,33.9575573 C22.041,33.9575573 22.041,29.4712708 22.041,29.4712708 C22.041,29.4712708 20.1933,21.6286042 20.7846,18.2992552 C21.3759,14.9699062 22.0572,2.83557812 17.6886,1.65160937 C13.32,0.468541667 4.6737,0.172098958 3.1212,3.20590625 Z" id="Path" fill="#F1B282"></path>
                <path d="M10.683,23.0378333 C10.665,23.3306719 10.5588,23.7838958 10.3995,24.3164115 C12.2355,22.9134896 12.1905,20.3392135 12.1905,20.3392135 C8.865,22.2214896 5.3532,21.3159427 5.3532,21.3159427 C5.3532,21.3159427 5.3532,21.3159427 5.3622,21.3249531 C7.3134,22.0701146 10.7541,21.7853854 10.683,23.0378333 Z" id="Path" fill="#CD916A"></path>
            </g>
            <path d="M44.8857,0.150473958 C44.8857,0.150473958 36.2088,1.89489063 36.2088,6.35324479 C36.2088,9.94389583 37.3104,13.1434948 44.7453,13.1434948 C48.3246,13.1434948 46.3869,21.7169062 47.2923,21.7169062 C48.8754,21.7169062 50.7636,17.1215937 52.5933,17.1215937 C55.2096,17.1215937 53.1909,31.6626042 55.8972,31.6626042 C59.5584,31.6626042 66.2229,26.6555156 66.2229,16.846776 C66.2229,3.67715104 55.0017,1.67954167 51.2154,1.47410417 C47.43,1.26866667 44.8857,0.150473958 44.8857,0.150473958 Z" id="Path" fill="#0B224E"></path>
            <polygon id="Rectangle" fill="#FFFFFF" transform="translate(10.799280, 80.094044) rotate(-180.000000) translate(-10.799280, -80.094044) " points="7.19928 78.2045599 14.39928 78.2045599 14.39928 81.9835286 7.19928 81.9835286"></polygon>
            <polygon id="Rectangle" fill="#102B5E" transform="translate(10.799280, 89.016880) rotate(-180.000000) translate(-10.799280, -89.016880) " points="7.19928001 81.8085463 14.39928 81.8085463 14.39928 96.225213 7.19928001 96.225213"></polygon>
            <polygon id="Rectangle" fill="#FFFFFF" transform="translate(21.599280, 81.808546) rotate(-180.000000) translate(-21.599280, -81.808546) " points="17.99928 78.2043797 25.19928 78.2043797 25.19928 85.412713 17.99928 85.412713"></polygon>
            <polygon id="Rectangle" fill="#102B5E" transform="translate(21.599280, 90.818963) rotate(-180.000000) translate(-21.599280, -90.818963) " points="17.99928 85.412713 25.19928 85.412713 25.19928 96.225213 17.99928 96.225213"></polygon>
            <polygon id="Rectangle" fill="#FFFFFF" transform="translate(32.399280, 85.412713) rotate(-180.000000) translate(-32.399280, -85.412713) " points="28.79928 78.2043797 35.99928 78.2043797 35.99928 92.6210463 28.79928 92.6210463"></polygon>
            <polygon id="Rectangle" fill="#102B5E" transform="translate(32.399280, 94.423130) rotate(-180.000000) translate(-32.399280, -94.423130) " points="28.79928 92.6210463 35.99928 92.6210463 35.99928 96.225213 28.79928 96.225213"></polygon>
            <path d="M58.0491,92.6216771 L78.7491,92.6216771 C78.9966,92.6216771 79.1991,92.4189427 79.1991,92.1711563 L79.1991,89.4680313 C79.1991,89.2202448 78.9966,89.0175104 78.7491,89.0175104 L58.0491,89.0175104 C57.8016,89.0175104 57.5991,89.2202448 57.5991,89.4680313 L57.5991,92.1711563 C57.5991,92.4189427 57.8016,92.6216771 58.0491,92.6216771 Z" id="Path" fill="#FFFFFF"></path>
            <path d="M68.8491,85.4133438 L78.7491,85.4133438 C78.9966,85.4133438 79.1991,85.2106094 79.1991,84.9628229 L79.1991,82.2596979 C79.1991,82.0119115 78.9966,81.8091771 78.7491,81.8091771 L68.8491,81.8091771 C68.6016,81.8091771 68.3991,82.0119115 68.3991,82.2596979 L68.3991,84.9628229 C68.3991,85.2106094 68.6016,85.4133438 68.8491,85.4133438 Z" id="Path" fill="#FFFFFF"></path>
            <path d="M59.4486,104.482089 C59.5791,101.405031 63.3654,98.5586406 64.6326,97.9080885 C65.16,95.3608438 67.2021,84.2888438 67.0113,80.9081354 C66.8547,78.1419375 66.4929,70.7966458 65.6325,66.8158438 L76.0284,66.8158438 C76.2966,70.5353438 76.4064,80.2774063 76.0518,82.2894323 C75.6441,84.6006042 72.3564,97.3197083 71.7768,99.3921042 C72.4392,101.439271 73.5066,105.250677 73.0845,107.46724 C72.4887,110.600161 65.1861,111.905771 63.0999,112.129229 C61.0137,112.352688 59.3001,107.988042 59.4486,104.482089 Z" id="Path" fill="#F1B282"></path>
        </g>
    </g>
</svg>